
        <svg width="81" height="58" viewBox="0 0 81 58" version="2.0" xmlns="http://www.w3.org/2000/svg" xmlns:xlink="http://www.w3.org/1999/xlink" xmlns:figma="http://www.figma.com/figma/ns">
        <title>Group</title>
        <desc>Created using Figma 0.90</desc>
        <g id="Canvas" transform="translate(1469 3546)" figma:type="canvas">
        <g id="Group" style="mix-blend-mode:normal;" figma:type="group">
        <g id="Vector" style="mix-blend-mode:normal;" figma:type="vector">
        <use xlink:href="#path0_fill" transform="translate(-1460.26 -3534.17)" fill="#2F80ED" style="mix-blend-mode:normal;"/>
        </g>
        <g id="Vector" style="mix-blend-mode:normal;" figma:type="vector">
        <use xlink:href="#path1_fill" transform="translate(-1427.5 -3533.5)" fill="#2F80ED" style="mix-blend-mode:normal;"/>
        </g>
        <g id="Vector" style="mix-blend-mode:normal;" figma:type="vector">
        <use xlink:href="#path2_fill" transform="translate(-1468.46 -3546)" fill="#2F80ED" style="mix-blend-mode:normal;"/>
        </g>
        <g id="Vector" style="mix-blend-mode:normal;" figma:type="vector">
        <use xlink:href="#path3_fill" transform="translate(-1438.84 -3517.27)" fill="#2F80ED" style="mix-blend-mode:normal;"/>
        </g>
        <g id="Vector" style="mix-blend-mode:normal;" figma:type="vector">
        <use xlink:href="#path4_fill" transform="translate(-1400.58 -3511.13)" fill="#2F80ED" style="mix-blend-mode:normal;"/>
        </g>
        <g id="Vector" style="mix-blend-mode:normal;" figma:type="vector">
        <use xlink:href="#path5_fill" transform="translate(-1411.55 -3511.11)" fill="#2F80ED" style="mix-blend-mode:normal;"/>
        </g>
        <g id="Vector" style="mix-blend-mode:normal;" figma:type="vector">
        <use xlink:href="#path6_fill" transform="translate(-1406.07 -3505.64)" fill="#2F80ED" style="mix-blend-mode:normal;"/>
        </g>
        <g id="Vector" style="mix-blend-mode:normal;" figma:type="vector">
        <use xlink:href="#path7_fill" transform="translate(-1406.08 -3516.6)" fill="#2F80ED" style="mix-blend-mode:normal;"/>
        </g>
        </g>
        </g>
        <defs>
        <path id="path0_fill" d="M 15.419 4.82066L 12.4415 4.82066L 12.4415 1.84611C 12.4415 1.22943 12.0509 0.680136 11.4679 0.476965C 10.5597 0.160524 9.60597 0 8.63332 0C 7.66066 0 6.70697 0.160524 5.79869 0.476965C 5.21571 0.680136 4.82518 1.22943 4.82518 1.84611L 4.82518 4.82066L 1.84797 4.82066C 1.23067 4.82066 0.680993 5.2108 0.477618 5.79301C 0.160686 6.7002 0 7.65311 0 8.62495C 0 9.5968 0.160686 10.5497 0.477618 11.4569C 0.680993 12.0391 1.23084 12.4291 1.84797 12.4291L 4.82553 12.4291L 4.82553 15.4036C 4.82553 16.0203 5.21605 16.5694 5.79886 16.7726C 6.70697 17.0892 7.66083 17.2497 8.63366 17.2497C 9.60648 17.2497 10.5604 17.0892 11.4685 16.7726C 12.0513 16.5694 12.4418 16.0203 12.4418 15.4036L 12.4418 12.4291L 15.4193 12.4291C 16.0366 12.4291 16.5865 12.0389 16.7899 11.4567C 17.1066 10.5495 17.2673 9.5968 17.2673 8.62495C 17.2673 7.65328 17.1066 6.70054 16.7899 5.79318C 16.5862 5.2108 16.0365 4.82066 15.419 4.82066ZM 14.2933 9.52907L 10.9902 9.52907C 10.1886 9.52907 9.53869 10.1783 9.53869 10.9791L 9.53869 14.2789C 8.94427 14.3733 8.32287 14.3731 7.72846 14.2789L 7.72846 10.9791C 7.72846 10.1783 7.07854 9.52907 6.27699 9.52907L 2.9738 9.52907C 2.92667 9.23208 2.90293 8.93014 2.90293 8.62495C 2.90293 8.31977 2.92667 8.01766 2.9738 7.72066L 6.27699 7.72066C 7.07854 7.72066 7.72846 7.0714 7.72846 6.27066L 7.72846 2.97097C 8.32305 2.87663 8.94427 2.87663 9.53869 2.97097L 9.53869 6.27066C 9.53869 7.0714 10.1886 7.72066 10.9902 7.72066L 14.2932 7.72066C 14.3403 8.01766 14.364 8.3196 14.364 8.62495C 14.364 8.93014 14.3403 9.23225 14.2933 9.52907Z"/>
        <path id="path1_fill" d="M 2.47057 4.93615C 2.47211 4.93615 2.47382 4.93615 2.47535 4.93615C 3.84076 4.93461 4.94438 3.82715 4.94114 2.46313C 4.93772 1.10064 3.83102 -0.00170391 2.46562 1.97723e-06C 1.10176 0.00324316 -0.00340732 1.1107 7.89408e-06 2.47302C 0.00308159 3.83534 1.10824 4.93615 2.47057 4.93615Z"/>
        <path id="path2_fill" d="M 70.636 19.2093C 68.0661 16.4393 63.8717 16.1206 60.8792 18.4689C 60.0615 19.1107 59.1074 19.66 58.0559 20.1108C 56.9007 13.4436 53.8687 7.32591 49.2129 2.3106C 46.6431 -0.459753 42.4489 -0.778753 39.4554 1.56957C 36.9794 3.51376 33.2739 4.6289 29.2892 4.6289C 25.3035 4.6289 21.5975 3.51376 19.1213 1.5694C 16.1306 -0.778583 11.9362 -0.459924 9.36417 2.31043C 3.32556 8.81924 0 17.2927 0 26.17C 0 29.4963 0.466518 32.7905 1.38692 35.9614C 2.05972 38.2787 3.84621 40.083 6.16548 40.7879C 6.85604 40.9977 7.56145 41.1005 8.26089 41.1005C 9.91351 41.1005 11.5316 40.5265 12.8342 39.4356C 15.6728 37.0562 18.9792 35.3314 22.5167 34.3638C 21.7967 37.1821 21.4235 40.1033 21.4235 43.0702C 21.4235 46.3982 21.8898 49.6922 22.8095 52.8607C 23.4823 55.1784 25.2688 56.9828 27.5888 57.6875C 28.279 57.8972 28.9839 57.9999 29.683 57.9999C 31.3358 57.9999 32.9542 57.4255 34.2563 56.3343C 38.855 52.4798 44.6992 50.3572 50.7118 50.3572C 56.7245 50.3572 62.5686 52.4798 67.1672 56.3343C 69.0201 57.8873 71.5127 58.3931 73.8347 57.6877C 76.1546 56.9828 77.9411 55.1785 78.6139 52.8609C 79.5337 49.6926 80 46.3985 80 43.0703C 80.0002 34.1915 76.6746 25.7177 70.636 19.2093ZM 10.6394 36.8215C 9.65942 37.6422 8.39101 37.8983 7.15965 37.5238C 5.93069 37.1504 5.02207 36.2343 4.66689 35.0112C 3.83631 32.1493 3.41521 29.1745 3.41521 26.17C 3.41521 18.1555 6.41753 10.5057 11.8687 4.62992C 13.2203 3.17378 15.431 3.01121 17.011 4.25173C 20.0774 6.65959 24.5526 8.0405 29.2894 8.0405C 34.0249 8.0405 38.4997 6.65959 41.5654 4.25224C 43.1475 3.01138 45.3576 3.17395 46.7083 4.62992C 51.0112 9.26515 53.7763 14.942 54.7614 21.1253C 53.6054 21.3606 52.3894 21.495 51.1418 21.5202C 51.3044 21.1898 51.3976 20.8191 51.3962 20.4257C 51.3928 19.0634 50.2827 17.9609 48.9173 17.9659C 47.5536 17.9691 46.4517 19.0781 46.4551 20.4421C 46.4559 20.6714 46.4904 20.8923 46.5497 21.1028C 44.212 20.6122 42.1268 19.7106 40.5444 18.4689C 37.5523 16.1208 33.3579 16.4391 30.7876 19.2093C 27.6868 22.5513 25.3035 26.4125 23.7164 30.5797C 18.9146 31.5135 14.4117 33.6593 10.6394 36.8215ZM 75.334 51.9104C 74.9788 53.134 74.0703 54.0499 72.841 54.4233C 71.61 54.7974 70.3418 54.5414 69.3625 53.7203C 64.1497 49.3514 57.526 46.9453 50.7118 46.9453C 43.8976 46.9453 37.2741 49.3514 32.0613 53.7203C 31.082 54.5412 29.8145 54.7973 28.5824 54.4233C 27.3535 54.0499 26.4447 53.134 26.0897 51.9104C 25.2596 49.0508 24.8387 46.0764 24.8387 43.07C 24.8387 35.0542 27.841 27.404 33.2924 21.5286C 34.035 20.7282 35.0375 20.3191 36.0525 20.3191C 36.8834 20.3191 37.7229 20.5934 38.4345 21.1519C 41.5017 23.5589 45.9766 24.9395 50.7116 24.9395C 55.4467 24.9395 59.9218 23.5589 62.9888 21.1519C 64.5697 19.9112 66.7802 20.0728 68.1309 21.5286C 73.5823 27.4042 76.5846 35.0544 76.5846 43.07C 76.585 46.0766 76.164 49.0508 75.334 51.9104Z"/>
        <path id="path3_fill" d="M 15.419 4.82049L 12.4415 4.82049L 12.4415 1.84611C 12.4415 1.22943 12.0509 0.680136 11.4681 0.476965C 10.56 0.160524 9.60631 0 8.63349 0C 7.66084 0 6.70714 0.160524 5.79886 0.476965C 5.21588 0.680136 4.82535 1.22943 4.82535 1.84611L 4.82535 4.82066L 1.84797 4.82066C 1.23067 4.82066 0.680993 5.2108 0.477618 5.79301C 0.160686 6.7002 0 7.65311 0 8.62495C 0 9.5968 0.160686 10.5497 0.477618 11.4569C 0.680993 12.0391 1.23067 12.4292 1.84797 12.4292L 4.82535 12.4292L 4.82535 15.4036C 4.82535 16.0203 5.21588 16.5694 5.79869 16.7726C 6.70697 17.0892 7.66084 17.2497 8.63349 17.2497C 9.60631 17.2497 10.5602 17.0892 11.4683 16.7726C 12.0511 16.5694 12.4415 16.0201 12.4415 15.4036L 12.4415 12.4292L 15.419 12.4292C 16.0361 12.4292 16.586 12.0393 16.7894 11.4571C 17.1061 10.55 17.267 9.59714 17.267 8.62495C 17.267 7.65277 17.1063 6.69986 16.7894 5.79284C 16.586 5.21045 16.0361 4.82049 15.419 4.82049ZM 14.2932 9.52907L 10.99 9.52907C 10.1884 9.52907 9.53852 10.1783 9.53852 10.9791L 9.53852 14.2788C 8.9441 14.3731 8.3227 14.3729 7.72829 14.2788L 7.72829 10.9791C 7.72829 10.1783 7.07837 9.52907 6.27682 9.52907L 2.9738 9.52907C 2.92667 9.23208 2.90293 8.93014 2.90293 8.62478C 2.90293 8.31943 2.92667 8.01749 2.9738 7.72049L 6.27682 7.72049C 7.07837 7.72049 7.72829 7.07123 7.72829 6.27049L 7.72829 2.9708C 8.32287 2.87646 8.9441 2.87663 9.53852 2.9708L 9.53852 6.27066C 9.53852 7.0714 10.1884 7.72066 10.99 7.72066L 14.2932 7.72066C 14.3403 8.01766 14.364 8.3196 14.364 8.62495C 14.364 8.93031 14.3403 9.23208 14.2932 9.52907Z"/>
        <path id="path4_fill" d="M 2.47041 4.93634C 2.47212 4.93634 2.47536 4.93634 2.47707 4.93634C 3.84247 4.93139 4.94439 3.82393 4.94115 2.4599C 4.93619 1.09758 3.82779 -0.00493048 2.46239 1.65835e-05C 1.09852 0.00325776 -0.00493546 1.11225 1.66028e-05 2.47474C 0.00309029 3.83553 1.10825 4.93634 2.47041 4.93634Z"/>
        <path id="path5_fill" d="M 2.46715 1.5993e-06C 1.10329 0.00170748 -0.00187598 1.10729 2.39085e-06 2.47132C 0.00171 3.83364 1.10841 4.93786 2.47381 4.93615C 3.83768 4.93444 4.94284 3.82886 4.94113 2.46637C 4.93925 1.10251 3.83255 -0.0015337 2.46715 1.5993e-06Z"/>
        <path id="path6_fill" d="M 2.48388 2.99981e-05C 2.46903 2.99981e-05 2.45588 2.99981e-05 2.44102 2.99981e-05C 1.09048 0.0164065 0 1.11397 0 2.4681C 0 3.83042 1.1067 4.93618 2.47057 4.93618C 2.47381 4.93618 2.47722 4.93618 2.47876 4.93618C 2.48371 4.93618 2.48867 4.93618 2.49362 4.93618C 2.49703 4.93618 2.50028 4.93618 2.50352 4.93618C 3.86722 4.93123 4.96913 3.82053 4.96418 2.45821C 4.95769 1.09418 3.84758 -0.00662295 2.48388 2.99981e-05Z"/>
        <path id="path7_fill" d="M 2.47057 4.93616C 2.47211 4.93616 2.47399 4.93616 2.47552 4.93616C 3.84093 4.93292 4.94455 3.82563 4.94114 2.46314C 4.93789 1.09911 3.82931 -0.00340387 2.46562 7.89706e-06C 1.10039 0.00324908 -0.00323732 1.11071 7.13525e-06 2.47303C 0.00154398 3.83381 1.10859 4.93616 2.47057 4.93616Z"/>
        </defs>
        </svg>
