<svg width="49" height="70" viewBox="0 0 49 70" version="2.0" xmlns="http://www.w3.org/2000/svg" xmlns:xlink="http://www.w3.org/1999/xlink" xmlns:figma="http://www.figma.com/figma/ns">
<title>robot</title>
<desc>Created using Figma 0.90</desc>
<g id="Canvas" transform="translate(1073 3550)" figma:type="canvas">
<g id="robot" style="mix-blend-mode:normal;" figma:type="group">
<g id="Group" style="mix-blend-mode:normal;" figma:type="group">
<g id="Vector" style="mix-blend-mode:normal;" figma:type="vector">
<use xlink:href="#path0_fill" transform="translate(-1058.57 -3545.16)" fill="#2F80ED" style="mix-blend-mode:normal;"/>
</g>
<g id="Vector" style="mix-blend-mode:normal;" figma:type="vector">
<use xlink:href="#path1_fill" transform="translate(-1053.24 -3541.53)" fill="#2F80ED" style="mix-blend-mode:normal;"/>
</g>
<g id="Vector" style="mix-blend-mode:normal;" figma:type="vector">
<use xlink:href="#path1_fill" transform="translate(-1046.02 -3541.53)" fill="#2F80ED" style="mix-blend-mode:normal;"/>
</g>
<g id="Vector" style="mix-blend-mode:normal;" figma:type="vector">
<use xlink:href="#path2_fill" transform="translate(-1072.5 -3550)" fill="#2F80ED" style="mix-blend-mode:normal;"/>
</g>
<g id="Vector" style="mix-blend-mode:normal;" figma:type="vector">
<use xlink:href="#path3_fill" transform="translate(-1060.46 -3527.02)" fill="#2F80ED" style="mix-blend-mode:normal;"/>
</g>
</g>
</g>
</g>
<defs>
<path id="path0_fill" d="M 20.1384 1.28389C 20.1814 0.959893 20.0832 0.633024 19.8689 0.387041C 19.6546 0.14121 19.3451 0 19.0198 0L 1.12854 0C 0.803216 0 0.493693 0.141058 0.279419 0.387041C 0.0651455 0.632873 -0.0331134 0.959893 0.0099219 1.28389L 1.1335 9.75041C 1.20829 10.3137 1.68649 10.7345 2.25212 10.7345L 17.8963 10.7345C 18.462 10.7345 18.9403 10.3137 19.015 9.75041L 20.1384 1.28389ZM 16.9082 8.46668L 3.24013 8.46668L 2.41749 2.26797L 17.7308 2.26797L 16.9082 8.46668Z"/>
<path id="path1_fill" d="M 1.12854 3.47733C 1.7518 3.47733 2.25708 2.96964 2.25708 2.34342L 2.25708 1.13391C 2.25708 0.50769 1.7518 0 1.12854 0C 0.505285 0 0 0.50769 0 1.13391L 0 2.34342C 0 2.96964 0.505285 3.47733 1.12854 3.47733Z"/>
<path id="path2_fill" d="M 47.1392 24.2102C 46.467 23.4288 45.4918 22.9806 44.4639 22.9806L 42.6578 22.9806L 42.7701 22.21C 42.9189 21.1879 42.6188 20.1537 41.9465 19.3722C 41.2743 18.5907 40.2993 18.1425 39.2712 18.1425L 36.9096 18.1425C 37.2512 17.588 37.4841 16.9571 37.5742 16.2773L 39.0188 5.39181C 39.1993 4.03112 38.7867 2.65819 37.8867 1.62527C 36.9868 0.592354 35.687 0 34.3205 0L 13.6795 0C 12.3131 0 11.0133 0.592354 10.1133 1.62527C 9.21335 2.65819 8.8006 4.03097 8.98132 5.39181L 10.4259 16.2773C 10.516 16.9571 10.7489 17.588 11.0907 18.1425L 8.72898 18.1425C 7.70095 18.1425 6.72588 18.5907 6.05372 19.3722C 5.38155 20.1537 5.08136 21.1879 5.23018 22.21L 5.34243 22.9806L 3.53615 22.9806C 2.50812 22.9806 1.53305 23.4287 0.86089 24.2102C 0.188727 24.9917 -0.111467 26.0259 0.0373508 27.048L 2.55462 44.3312C 2.97865 47.2429 5.5069 49.4384 8.43555 49.4384L 9.19574 49.4384L 10.4809 58.2625C 10.9557 61.5226 12.5835 64.5045 15.0645 66.659C 17.5455 68.8135 20.7178 70 24.0032 70C 27.2823 70 30.4547 68.8135 32.9356 66.6589C 35.4166 64.5045 37.0444 61.5224 37.5191 58.2624L 38.8042 49.4384L 39.5644 49.4384C 42.493 49.4384 45.0214 47.2429 45.4453 44.3312L 47.9626 27.0478C 48.1115 26.0259 47.8115 24.9917 47.1392 24.2102ZM 44.4639 25.2484C 44.8412 25.2484 45.1848 25.4064 45.4316 25.693C 45.6784 25.9798 45.784 26.3443 45.7294 26.7194L 45.5693 27.8186L 41.9531 27.8186L 42.3275 25.2484L 44.4639 25.2484ZM 43.8077 39.9136L 40.1915 39.9136L 41.6228 30.0864L 45.239 30.0864L 43.8077 39.9136ZM 2.76106 30.0864L 6.37723 30.0864L 7.80853 39.9136L 4.19236 39.9136L 2.76106 30.0864ZM 12.0054 53.067L 35.9945 53.067L 35.6202 55.6371L 12.3796 55.6371L 12.0054 53.067ZM 12.6629 15.9777L 11.2184 5.09216C 11.1239 4.37931 11.34 3.66026 11.8114 3.11916C 12.2828 2.57806 12.9637 2.26782 13.6795 2.26782L 34.3207 2.26782C 35.0363 2.26782 35.7172 2.57806 36.1888 3.11916C 36.6604 3.66026 36.8763 4.37931 36.7818 5.09216L 35.3373 15.9777C 35.1736 17.2118 34.1156 18.1425 32.8763 18.1425L 15.1239 18.1425C 13.8846 18.1425 12.8268 17.2118 12.6629 15.9777ZM 7.76113 20.855C 8.00791 20.5682 8.35144 20.4104 8.72883 20.4104L 39.2714 20.4104C 39.6486 20.4104 39.9923 20.5682 40.2391 20.855C 40.4859 21.1418 40.5915 21.5063 40.5369 21.8816L 36.325 50.7991L 11.6751 50.7991L 7.4632 21.8816C 7.40873 21.5065 7.51436 21.1418 7.76113 20.855ZM 2.56846 25.693C 2.81523 25.4064 3.15876 25.2484 3.53615 25.2484L 5.67257 25.2484L 6.04694 27.8186L 2.43078 27.8186L 2.27067 26.7194C 2.21605 26.3445 2.32183 25.9798 2.56846 25.693ZM 8.43555 47.1706C 6.61904 47.1706 5.05081 45.8087 4.78779 44.0028L 4.52265 42.1814L 8.13882 42.1814L 8.86546 47.1706L 8.43555 47.1706ZM 31.4596 64.9432C 29.3886 66.7417 26.7405 67.7322 23.9969 67.7322C 21.2595 67.7322 18.6114 66.7417 16.5405 64.9432C 14.4695 63.1447 13.1108 60.6555 12.7143 57.9341L 12.71 57.905L 35.29 57.905L 35.2858 57.9341C 34.8893 60.6555 33.5306 63.1447 31.4596 64.9432ZM 39.5645 47.1706L 39.1346 47.1706L 39.8613 42.1814L 43.4774 42.1814L 43.2121 44.0028C 42.9491 45.8087 41.381 47.1706 39.5645 47.1706Z"/>
<path id="path3_fill" d="M 3.53612 9.52484L 7.18855 9.52484C 8.05844 10.7018 9.3486 11.5464 10.8341 11.8345L 10.8341 15.648C 10.8341 16.2742 11.3394 16.7819 11.9626 16.7819C 12.5859 16.7819 13.0912 16.2742 13.0912 15.648L 13.0912 11.8345C 14.5765 11.5464 15.8668 10.7018 16.7367 9.52484L 20.3891 9.52484C 22.3389 9.52484 23.9252 7.93102 23.9252 5.97192C 23.9252 4.01283 22.3389 2.41901 20.3891 2.41901L 16.7367 2.41901C 15.6527 0.952333 13.9164 0 11.9626 0C 10.0089 0 8.27256 0.952333 7.18855 2.41901L 3.53612 2.41901C 1.58629 2.41901 0 4.01283 0 5.97192C 0 7.93102 1.58629 9.52484 3.53612 9.52484ZM 20.3891 4.68683C 21.0944 4.68683 21.6681 5.26331 21.6681 5.97192C 21.6681 6.68054 21.0944 7.25702 20.3891 7.25702L 17.7662 7.25702C 17.857 6.84277 17.9063 6.41309 17.9063 5.97192C 17.9063 5.53076 17.857 5.10108 17.7662 4.68683L 20.3891 4.68683ZM 11.9626 2.26782C 13.9954 2.26782 15.6492 3.92953 15.6492 5.97192C 15.6492 8.01432 13.9954 9.67603 11.9626 9.67603C 9.92987 9.67603 8.27602 8.01432 8.27602 5.97192C 8.27602 3.92953 9.92987 2.26782 11.9626 2.26782ZM 3.53612 4.68683L 6.15902 4.68683C 6.06828 5.10108 6.01893 5.53076 6.01893 5.97192C 6.01893 6.41309 6.06828 6.84277 6.15902 7.25702L 3.53612 7.25702C 2.83085 7.25702 2.2571 6.68054 2.2571 5.97192C 2.2571 5.26331 2.83085 4.68683 3.53612 4.68683Z"/>
</defs>
</svg>
