<svg width="71" height="70" viewBox="0 0 71 70" version="2.0" xmlns="http://www.w3.org/2000/svg" xmlns:xlink="http://www.w3.org/1999/xlink" xmlns:figma="http://www.figma.com/figma/ns">
<title>Vector</title>
<desc>Created using Figma 0.90</desc>
<g id="Canvas" transform="translate(1269 3553)" figma:type="canvas">
<g id="Vector" style="mix-blend-mode:normal;" figma:type="vector">
<use xlink:href="#path0_fill" transform="translate(-1268.5 -3553)" fill="#2F80ED" style="mix-blend-mode:normal;"/>
</g>
</g>
<defs>
<path id="path0_fill" d="M 62.3636 0C 58.1522 0 54.7273 3.42491 54.7273 7.63636C 54.7273 8.95364 55.062 10.1933 55.6513 11.2764L 43.1416 23.786C 41.4171 22.4433 39.2585 21.6364 36.9091 21.6364C 34.5596 21.6364 32.4011 22.4433 30.6753 23.7847L 20.9147 14.0242C 21.3627 13.2669 21.6364 12.3964 21.6364 11.4545C 21.6364 8.64691 19.3531 6.36364 16.5455 6.36364C 13.7378 6.36364 11.4545 8.64691 11.4545 11.4545C 11.4545 14.2622 13.7378 16.5455 16.5455 16.5455C 17.4873 16.5455 18.3578 16.2718 19.1151 15.8238L 28.8756 25.5844C 27.5342 27.3102 26.7273 29.4687 26.7273 31.8182C 26.7273 34.1676 27.5342 36.3262 28.8756 38.0507L 12.7578 54.1698C 11.4011 52.9391 9.60782 52.1818 7.63636 52.1818C 3.42491 52.1818 0 55.6067 0 59.8182C 0 64.0296 3.42491 67.4545 7.63636 67.4545C 11.8478 67.4545 15.2727 64.0296 15.2727 59.8182C 15.2727 58.5009 14.938 57.2613 14.3487 56.1782L 30.6765 39.8504C 32.0842 40.9449 33.782 41.678 35.6376 41.9109L 35.6376 54.8418C 32.032 55.4502 29.274 58.5862 29.274 62.3636C 29.274 66.5751 32.6989 70 36.9104 70C 41.1218 70 44.5467 66.5751 44.5467 62.3636C 44.5467 58.5875 41.7887 55.4515 38.1831 54.8418L 38.1831 41.9109C 40.0387 41.678 41.7365 40.9449 43.1442 39.8504L 52.9047 49.6109C 52.4555 50.3695 52.1818 51.24 52.1818 52.1818C 52.1818 54.9895 54.4651 57.2727 57.2727 57.2727C 60.0804 57.2727 62.3636 54.9895 62.3636 52.1818C 62.3636 49.3742 60.0804 47.0909 57.2727 47.0909C 56.3309 47.0909 55.4604 47.3645 54.7031 47.8125L 44.9425 38.052C 46.284 36.3262 47.0909 34.1676 47.0909 31.8182C 47.0909 29.4687 46.284 27.3102 44.9425 25.5856L 57.2435 13.2847C 58.5989 14.5155 60.3922 15.2727 62.3636 15.2727C 66.5751 15.2727 70 11.8478 70 7.63636C 70 3.42491 66.5751 0 62.3636 0ZM 14 11.4545C 14 10.0507 15.1416 8.90909 16.5455 8.90909C 17.9493 8.90909 19.0909 10.0507 19.0909 11.4545C 19.0909 12.8584 17.9493 14 16.5455 14C 15.1416 14 14 12.8584 14 11.4545ZM 7.63636 64.9091C 4.82873 64.9091 2.54545 62.6258 2.54545 59.8182C 2.54545 57.0105 4.82873 54.7273 7.63636 54.7273C 10.444 54.7273 12.7273 57.0105 12.7273 59.8182C 12.7273 62.6258 10.444 64.9091 7.63636 64.9091ZM 42 62.3636C 42 65.1713 39.7167 67.4545 36.9091 67.4545C 34.1015 67.4545 31.8182 65.1713 31.8182 62.3636C 31.8182 59.556 34.1015 57.2727 36.9091 57.2727C 39.7167 57.2727 42 59.556 42 62.3636ZM 36.9091 39.4545C 32.6976 39.4545 29.2727 36.0296 29.2727 31.8182C 29.2727 27.6067 32.6976 24.1818 36.9091 24.1818C 41.1205 24.1818 44.5455 27.6067 44.5455 31.8182C 44.5455 36.0296 41.1205 39.4545 36.9091 39.4545ZM 59.8182 52.1818C 59.8182 53.5856 58.6765 54.7273 57.2727 54.7273C 55.8689 54.7273 54.7273 53.5856 54.7273 52.1818C 54.7273 50.778 55.8689 49.6364 57.2727 49.6364C 58.6765 49.6364 59.8182 50.778 59.8182 52.1818ZM 62.3636 12.7273C 59.556 12.7273 57.2727 10.444 57.2727 7.63636C 57.2727 4.82873 59.556 2.54545 62.3636 2.54545C 65.1713 2.54545 67.4545 4.82873 67.4545 7.63636C 67.4545 10.444 65.1713 12.7273 62.3636 12.7273Z"/>
</defs>
</svg>
